<?xml version="1.0" encoding="utf-8"?>
<!-- Generator: Adobe Illustrator 15.0.2, SVG Export Plug-In . SVG Version: 6.00 Build 0)  -->
<!DOCTYPE svg PUBLIC "-//W3C//DTD SVG 1.1//EN" "http://www.w3.org/Graphics/SVG/1.1/DTD/svg11.dtd">
<svg version="1.1" id="Layer_1" xmlns="http://www.w3.org/2000/svg" xmlns:xlink="http://www.w3.org/1999/xlink" x="0px" y="0px"
	 width="220px" height="60px" viewBox="0 -1.417 220 60" enable-background="new 0 -1.417 220 60" xml:space="preserve">
<path fill="#1D1D1B" d="M64.488,16.714c0.184-0.305,0.322-0.663,0.413-1.071c0.092-0.408,0.138-0.908,0.138-1.5v-0.797
	c0-0.714-0.096-1.403-0.29-2.066c-0.195-0.664-0.516-1.25-0.965-1.76c-0.448-0.511-1.024-0.919-1.729-1.226
	C61.352,7.991,60.5,7.836,59.5,7.836h-4.561v21.797h4.255c2.041,0,3.526-0.51,4.454-1.531c0.929-1.02,1.392-2.489,1.392-4.408V22.47
	c0-1.142-0.173-2.055-0.52-2.739c-0.347-0.684-0.888-1.198-1.623-1.546c0.347-0.204,0.653-0.423,0.918-0.658
	C64.08,17.292,64.305,17.021,64.488,16.714z M62.04,24.307c-0.04,0.449-0.153,0.837-0.337,1.162
	c-0.183,0.329-0.454,0.583-0.811,0.766c-0.358,0.185-0.852,0.276-1.485,0.276h-1.346v-6.98h1.376c0.571,0,1.03,0.072,1.377,0.214
	c0.348,0.143,0.618,0.352,0.812,0.628c0.194,0.276,0.321,0.618,0.383,1.025c0.06,0.408,0.091,0.889,0.091,1.439
	C62.101,23.368,62.081,23.857,62.04,24.307z M61.565,15.995c-0.357,0.522-1.056,0.782-2.097,0.782h-1.407v-6h1.285
	c1.041,0,1.76,0.246,2.158,0.735c0.397,0.49,0.596,1.224,0.596,2.204C62.101,14.714,61.923,15.476,61.565,15.995z"/>
<rect x="68.071" y="7.837" fill="#1D1D1B" width="3.123" height="21.796"/>
<polygon fill="#1D1D1B" points="72.662,10.776 76.274,10.776 76.274,29.633 79.397,29.633 79.397,10.776 83.008,10.776 
	83.008,7.837 72.662,7.837 "/>
<path fill="#1D1D1B" d="M93.064,9.215c-0.458-0.468-1.01-0.847-1.652-1.132c-0.643-0.285-1.353-0.43-2.128-0.43
	c-0.897,0-1.684,0.159-2.357,0.475c-0.673,0.317-1.229,0.74-1.667,1.271c-0.44,0.531-0.771,1.163-0.995,1.898
	c-0.226,0.734-0.337,1.51-0.337,2.327c0,1.368,0.229,2.507,0.689,3.414c0.459,0.908,1.362,1.638,2.709,2.189l2.235,0.918
	c0.387,0.163,0.699,0.317,0.934,0.459c0.234,0.144,0.417,0.328,0.551,0.552c0.132,0.224,0.219,0.52,0.261,0.887
	c0.04,0.368,0.06,0.837,0.06,1.409c0,0.489-0.02,0.938-0.06,1.347c-0.042,0.408-0.137,0.75-0.291,1.026s-0.378,0.489-0.673,0.644
	c-0.296,0.152-0.709,0.228-1.24,0.228c-0.795,0-1.362-0.228-1.699-0.688c-0.336-0.459-0.504-0.974-0.504-1.547v-0.979h-3.124v1.163
	c0,0.735,0.137,1.418,0.414,2.051c0.275,0.633,0.647,1.179,1.117,1.637c0.469,0.46,1.03,0.823,1.684,1.087
	c0.653,0.266,1.357,0.398,2.112,0.398c1.001,0,1.847-0.164,2.542-0.488c0.694-0.328,1.25-0.771,1.667-1.333
	c0.419-0.562,0.72-1.234,0.904-2.021c0.184-0.786,0.275-1.637,0.275-2.556c0-0.795-0.041-1.505-0.122-2.127
	c-0.083-0.622-0.241-1.173-0.475-1.653c-0.235-0.479-0.566-0.898-0.995-1.255c-0.427-0.357-0.99-0.668-1.684-0.934l-2.386-0.949
	c-0.409-0.163-0.731-0.327-0.965-0.489c-0.234-0.163-0.413-0.352-0.536-0.566c-0.122-0.214-0.2-0.469-0.23-0.765
	c-0.03-0.295-0.045-0.658-0.045-1.086c0-0.367,0.03-0.719,0.091-1.057c0.062-0.336,0.168-0.633,0.321-0.888s0.367-0.463,0.643-0.627
	c0.275-0.164,0.627-0.246,1.056-0.246c0.795,0,1.362,0.261,1.698,0.781c0.337,0.521,0.505,1.137,0.505,1.851v0.704h3.123v-1.53
	c0-0.611-0.122-1.209-0.367-1.79C93.875,10.209,93.523,9.685,93.064,9.215"/>
<path fill="#1D1D1B" d="M112.333,10.654c-0.306-0.674-0.71-1.229-1.209-1.668c-0.501-0.438-1.062-0.77-1.683-0.995
	c-0.623-0.226-1.25-0.338-1.883-0.338c-0.632,0-1.261,0.112-1.882,0.338c-0.624,0.224-1.185,0.556-1.685,0.995
	c-0.501,0.439-0.903,0.995-1.209,1.668c-0.306,0.673-0.458,1.449-0.458,2.326v11.51c0,0.9,0.152,1.679,0.458,2.342
	c0.306,0.664,0.709,1.215,1.209,1.653c0.5,0.438,1.061,0.771,1.685,0.996c0.621,0.224,1.249,0.337,1.882,0.337
	c0.632,0,1.259-0.113,1.883-0.337c0.621-0.224,1.182-0.555,1.683-0.996c0.499-0.438,0.903-0.989,1.209-1.653
	c0.306-0.663,0.459-1.442,0.459-2.342v-11.51C112.792,12.103,112.639,11.327,112.333,10.654z M109.67,24.49
	c0,0.756-0.209,1.312-0.628,1.669c-0.419,0.357-0.914,0.535-1.484,0.535c-0.572,0-1.067-0.178-1.485-0.535
	c-0.418-0.356-0.628-0.913-0.628-1.669v-11.51c0-0.754,0.209-1.311,0.628-1.668c0.418-0.356,0.914-0.535,1.485-0.535
	c0.571,0,1.065,0.178,1.484,0.535c0.418,0.358,0.628,0.914,0.628,1.668V24.49z"/>
<polygon fill="#1D1D1B" points="124.854,10.776 124.854,7.837 115.547,7.837 115.547,29.633 118.669,29.633 118.669,20.327 
	124.057,20.327 124.057,17.389 118.669,17.389 118.669,10.776 "/>
<g>
	<polygon fill="#1D1D1B" points="132.567,29.633 135.689,29.633 135.689,20.327 141.077,20.327 141.077,17.389 135.689,17.389 
		135.689,10.776 141.872,10.776 141.872,7.837 132.567,7.837 	"/>
	<path fill="#1D1D1B" d="M151.729,19.684c1-0.549,1.699-1.28,2.097-2.188c0.398-0.908,0.598-1.995,0.598-3.26
		c0-4.264-1.836-6.398-5.511-6.398h-5.021v21.796h3.123v-9.306h1.866l2.909,9.305h3.305L151.729,19.684z M151.209,15.628
		c-0.062,0.419-0.178,0.771-0.353,1.057c-0.174,0.286-0.424,0.505-0.749,0.658c-0.327,0.153-0.765,0.229-1.316,0.229h-1.775v-6.795
		h1.622c0.571,0,1.029,0.07,1.377,0.214c0.348,0.143,0.617,0.362,0.812,0.658c0.193,0.296,0.321,0.654,0.382,1.071
		c0.062,0.419,0.092,0.902,0.092,1.455C151.301,14.726,151.27,15.21,151.209,15.628z"/>
</g>
<polygon fill="#1D1D1B" points="156.935,7.837 166.239,7.837 166.239,10.776 160.058,10.776 160.058,17.174 165.444,17.174 
	165.444,20.114 160.058,20.114 160.058,26.511 166.239,26.511 166.239,29.633 156.935,29.633 "/>
<polygon fill="#1D1D1B" points="168.26,7.837 177.565,7.837 177.565,10.776 171.383,10.776 171.383,17.174 176.77,17.174 
	176.77,20.114 171.383,20.114 171.383,26.511 177.565,26.511 177.565,29.633 168.26,29.633 "/>
<g>
	<path fill="#1D1D1B" d="M184.207,7.838h-4.621v21.795h4.349c1.854,0,3.279-0.485,4.269-1.453c0.99-0.971,1.484-2.475,1.484-4.516
		V13.47c0-1.774-0.468-3.157-1.405-4.148C187.343,8.333,185.985,7.838,184.207,7.838z M186.566,23.97
		c0,0.939-0.184,1.627-0.551,2.066c-0.367,0.44-0.991,0.658-1.869,0.658h-1.437V10.776h1.437c0.919,0,1.553,0.234,1.9,0.705
		c0.348,0.469,0.52,1.133,0.52,1.99V23.97z"/>
	<path fill="#1D1D1B" d="M201.244,8.985c-0.502-0.438-1.062-0.77-1.684-0.995c-0.622-0.225-1.25-0.337-1.882-0.337
		c-0.634,0-1.261,0.113-1.883,0.337c-0.624,0.225-1.184,0.557-1.684,0.995c-0.501,0.439-0.903,0.996-1.208,1.668
		c-0.308,0.674-0.46,1.45-0.46,2.326v11.51c0,0.899,0.152,1.68,0.46,2.342c0.305,0.664,0.707,1.215,1.208,1.653
		c0.501,0.438,1.061,0.771,1.684,0.996c0.622,0.224,1.249,0.337,1.883,0.337c0.632,0,1.26-0.113,1.882-0.337
		c0.621-0.224,1.183-0.555,1.684-0.996c0.499-0.438,0.903-0.99,1.208-1.653c0.306-0.662,0.46-1.443,0.46-2.342v-11.51
		c0-0.875-0.154-1.653-0.46-2.326C202.147,9.981,201.743,9.425,201.244,8.985z M199.791,24.49c0,0.756-0.21,1.312-0.629,1.669
		c-0.418,0.357-0.912,0.535-1.483,0.535c-0.573,0-1.067-0.178-1.486-0.535c-0.417-0.356-0.626-0.913-0.626-1.669v-11.51
		c0-0.754,0.209-1.31,0.626-1.668c0.419-0.356,0.913-0.534,1.486-0.534c0.571,0,1.064,0.178,1.483,0.534
		c0.419,0.359,0.629,0.915,0.629,1.668V24.49z"/>
	<polygon fill="#1D1D1B" points="216.719,7.837 212.739,19.379 212.678,19.379 208.667,7.837 205.667,7.837 205.667,29.633 
		208.789,29.633 208.789,16.378 208.852,16.378 211.912,25.745 213.474,25.745 216.565,16.378 216.625,16.378 216.625,29.633 
		219.749,29.633 219.749,7.837 	"/>
</g>
<g>
	<polygon fill="#57A132" points="57.81,43.394 57.781,43.394 56.643,36.408 55.125,36.408 57.163,46.416 58.428,46.416 
		60.479,36.408 58.962,36.408 	"/>
	<polygon fill="#57A132" points="61.336,46.416 65.609,46.416 65.609,44.982 62.77,44.982 62.77,42.045 65.244,42.045 
		65.244,40.697 62.77,40.697 62.77,37.759 65.609,37.759 65.609,36.408 61.336,36.408 	"/>
	<path fill="#57A132" d="M71.37,39.347c0-1.939-0.829-2.938-2.53-2.938h-2.305v10.007h1.433v-4.272h0.857l1.336,4.272h1.519
		l-1.547-4.567C71.046,41.342,71.37,40.499,71.37,39.347z M68.784,40.879h-0.815v-3.12h0.746c1.054,0,1.223,0.548,1.223,1.561
		C69.938,40.316,69.782,40.879,68.784,40.879z"/>
	<path fill="#57A132" d="M74.644,36.408h-2.123v10.007h1.995c1.688,0,2.643-0.887,2.643-2.741v-4.679
		C77.159,37.379,76.26,36.408,74.644,36.408z M75.725,43.815c0,0.857-0.309,1.251-1.11,1.251h-0.66v-7.309h0.66
		c0.843,0,1.11,0.449,1.11,1.237V43.815z"/>
	<polygon fill="#57A132" points="78.506,46.416 82.779,46.416 82.779,44.982 79.94,44.982 79.94,42.045 82.413,42.045 
		82.413,40.697 79.94,40.697 79.94,37.759 82.779,37.759 82.779,36.408 78.506,36.408 	"/>
	<path fill="#57A132" d="M85.829,36.408h-2.123v10.007h1.996c1.687,0,2.642-0.887,2.642-2.741v-4.679
		C88.344,37.379,87.444,36.408,85.829,36.408z M86.91,43.815c0,0.857-0.308,1.251-1.11,1.251h-0.661v-7.309h0.661
		c0.843,0,1.11,0.449,1.11,1.237V43.815z"/>
	<rect x="89.733" y="36.408" fill="#57A132" width="1.434" height="10.007"/>
	<path fill="#57A132" d="M94.876,36.325c-1.167,0-2.402,0.816-2.402,2.445v5.284c0,1.63,1.237,2.444,2.402,2.444
		c1.167,0,2.404-0.816,2.404-2.444v-3.149h-2.572v1.265h1.138v1.885c0,0.688-0.45,1.012-0.97,1.012s-0.969-0.323-0.969-1.012v-5.284
		c0-0.688,0.449-1.013,0.969-1.013s0.97,0.324,0.97,1.013v0.506h1.433v-0.506C97.28,37.142,96.044,36.325,94.876,36.325z"/>
	<polygon fill="#57A132" points="97.827,37.759 99.485,37.759 99.485,46.416 100.919,46.416 100.919,37.759 102.577,37.759 
		102.577,36.408 97.827,36.408 	"/>
	<path fill="#57A132" d="M107.945,36.408h-2.122v10.007h1.995c1.686,0,2.643-0.887,2.643-2.741v-4.679
		C110.461,37.379,109.561,36.408,107.945,36.408z M109.026,43.815c0,0.857-0.31,1.251-1.111,1.251h-0.659v-7.309h0.659
		c0.844,0,1.111,0.449,1.111,1.237V43.815z"/>
	<rect x="111.85" y="36.408" fill="#57A132" width="1.434" height="10.007"/>
	<path fill="#57A132" d="M116.994,36.325c-1.167,0-2.405,0.816-2.405,2.445v5.284c0,1.63,1.239,2.444,2.405,2.444
		c1.166,0,2.405-0.816,2.405-2.444v-3.149h-2.573v1.265h1.138v1.885c0,0.688-0.449,1.012-0.97,1.012
		c-0.519,0-0.969-0.323-0.969-1.012v-5.284c0-0.688,0.45-1.013,0.969-1.013c0.521,0,0.97,0.324,0.97,1.013v0.506h1.435v-0.506
		C119.398,37.142,118.16,36.325,116.994,36.325z"/>
	<rect x="120.703" y="36.408" fill="#57A132" width="1.432" height="10.007"/>
	<polygon fill="#57A132" points="127.56,36.408 122.809,36.408 122.809,37.759 124.467,37.759 124.467,46.416 125.9,46.416 
		125.9,37.759 127.56,37.759 	"/>
	<path fill="#57A132" d="M129.779,36.408l-2.234,10.007h1.434l0.42-2.149h1.955l0.419,2.149h1.435l-2.235-10.007H129.779z
		 M129.652,42.917l0.704-3.625h0.028l0.703,3.625H129.652z"/>
	<polygon fill="#57A132" points="135.346,36.408 133.912,36.408 133.912,46.416 138.184,46.416 138.184,44.982 135.346,44.982 	"/>
	<polygon fill="#57A132" points="139.109,46.416 143.382,46.416 143.382,44.982 140.542,44.982 140.542,42.045 143.015,42.045 
		143.015,40.697 140.542,40.697 140.542,37.759 143.382,37.759 143.382,36.408 139.109,36.408 	"/>
	<path fill="#57A132" d="M149.016,36.408h-2.094v10.007h1.954c1.855,0,2.686-0.982,2.686-2.726v-0.562
		c0-1.039-0.312-1.645-0.984-1.968c0.632-0.394,0.984-0.787,0.984-1.855v-0.365C151.562,37.633,150.87,36.408,149.016,36.408z
		 M148.973,44.982h-0.618v-3.205h0.632c1.041,0,1.224,0.521,1.224,1.518C150.21,44.28,150.125,44.982,148.973,44.982z
		 M149.002,40.512h-0.647v-2.754h0.592c0.94,0,1.264,0.464,1.264,1.349C150.21,40.021,149.957,40.512,149.002,40.512z"/>
	<path fill="#57A132" d="M156.111,44.027c0,0.701-0.379,1.04-0.886,1.04c-0.504,0-0.884-0.337-0.884-1.04v-7.618h-1.433v7.759
		c0,1.308,1.038,2.333,2.316,2.333c1.28,0,2.32-1.025,2.32-2.333v-7.759h-1.435V44.027z"/>
	<path fill="#57A132" d="M163.729,39.347c0-1.939-0.83-2.938-2.532-2.938h-2.303v10.007h1.433v-4.272h0.856l1.335,4.272h1.52
		l-1.546-4.567C163.405,41.342,163.729,40.499,163.729,39.347z M161.142,40.879h-0.814v-3.12h0.743c1.055,0,1.223,0.548,1.223,1.561
		C162.293,40.316,162.141,40.879,161.142,40.879z"/>
	<path fill="#57A132" d="M167.197,36.325c-1.166,0-2.403,0.816-2.403,2.445v5.284c0,1.63,1.237,2.444,2.403,2.444
		c1.167,0,2.405-0.816,2.405-2.444v-3.149h-2.572v1.265h1.138v1.885c0,0.688-0.451,1.012-0.971,1.012s-0.968-0.323-0.968-1.012
		v-5.284c0-0.688,0.448-1.013,0.968-1.013s0.971,0.324,0.971,1.013v0.506h1.435v-0.506
		C169.604,37.142,168.364,36.325,167.197,36.325z"/>
	<polygon fill="#57A132" points="170.866,46.416 175.137,46.416 175.137,44.982 172.299,44.982 172.299,42.045 174.772,42.045 
		174.772,40.697 172.299,40.697 172.299,37.759 175.137,37.759 175.137,36.408 170.866,36.408 	"/>
	<path fill="#57A132" d="M180.899,39.347c0-1.939-0.83-2.938-2.531-2.938h-2.304v10.007h1.434v-4.272h0.856l1.336,4.272h1.519
		l-1.547-4.567C180.575,41.342,180.899,40.499,180.899,39.347z M178.313,40.879h-0.814v-3.12h0.744c1.054,0,1.222,0.548,1.222,1.561
		C179.465,40.316,179.311,40.879,178.313,40.879z"/>
	<path fill="#57A132" d="M186.886,39.347c0-1.939-0.83-2.938-2.529-2.938h-2.307v10.007h1.435v-4.272h0.856l1.335,4.272h1.517
		l-1.544-4.567C186.562,41.342,186.886,40.499,186.886,39.347z M184.3,40.879h-0.815v-3.12h0.744c1.054,0,1.222,0.548,1.222,1.561
		C185.45,40.316,185.298,40.879,184.3,40.879z"/>
	<polygon fill="#57A132" points="188.037,46.416 192.308,46.416 192.308,44.982 189.47,44.982 189.47,42.045 191.941,42.045 
		191.941,40.697 189.47,40.697 189.47,37.759 192.308,37.759 192.308,36.408 188.037,36.408 	"/>
	<path fill="#57A132" d="M195.483,36.325c-1.391,0-2.332,0.997-2.332,2.305v5.51c0,1.825,1.264,2.36,2.361,2.36
		c1.279,0,2.276-1.083,2.276-2.319v-0.618h-1.434v0.492c0,0.787-0.507,1.012-0.898,1.012c-0.647,0-0.874-0.449-0.874-1.024v-5.116
		c0-0.676,0.17-1.167,0.885-1.167c0.55,0,0.887,0.479,0.887,1.039v0.479h1.434v-0.562C197.789,37.323,196.806,36.325,195.483,36.325
		z"/>
	<polygon fill="#57A132" points="202.159,40.697 200.389,40.697 200.389,36.408 198.955,36.408 198.955,46.416 200.389,46.416 
		200.389,41.962 202.159,41.962 202.159,46.416 203.591,46.416 203.591,36.408 202.159,36.408 	"/>
	<polygon fill="#57A132" points="204.224,37.759 205.881,37.759 205.881,46.416 207.314,46.416 207.314,37.759 208.973,37.759 
		208.973,36.408 204.224,36.408 	"/>
	<polygon fill="#57A132" points="209.604,46.416 213.877,46.416 213.877,44.982 211.038,44.982 211.038,42.045 213.511,42.045 
		213.511,40.697 211.038,40.697 211.038,37.759 213.877,37.759 213.877,36.408 209.604,36.408 	"/>
	<polygon fill="#57A132" points="218.316,36.408 218.316,42.438 218.289,42.438 216.124,36.408 214.748,36.408 214.748,46.416 
		216.182,46.416 216.182,40.4 216.209,40.4 218.402,46.416 219.752,46.416 219.752,36.408 	"/>
</g>
<path fill="#57A132" d="M24.875,53.938h-0.192c-0.093,0-0.178-0.013-0.265-0.036C24.417,53.9,24.415,53.9,24.413,53.9
	c-0.036-0.005-0.124-0.019-0.233-0.046l-0.03-0.007c-0.128-0.037-0.292-0.065-0.545-0.136l-0.112-0.04
	c-0.22-0.094-0.471-0.218-0.724-0.399c-0.15-0.113-0.435-0.276-0.72-0.597c-0.395-0.429-0.729-0.919-0.951-1.475
	c-0.173-0.446-0.282-0.957-0.281-1.514v-3.95c0-0.526,0.427-0.954,0.954-0.954c0.525,0,0.953,0.427,0.953,0.954v3.95
	c0.001,0.316,0.055,0.571,0.15,0.817c0.108,0.275,0.319,0.602,0.578,0.88l0.023,0.026c0.033,0.048,0.174,0.151,0.401,0.309
	c0.113,0.078,0.185,0.119,0.311,0.174c0.117,0.031,0.264,0.059,0.475,0.117c0.019,0.001,0.06,0.006,0.133,0.021h0.082h1.09
	c0.708,0,1.57,0,2.59-0.024l0.026-0.002h0.246c2.375-0.161,4.44-0.93,6.272-2.382l0.029-0.021c0.336-0.245,0.716-0.593,1.112-0.966
	c2.264-2.301,3.367-4.949,3.375-8.184v-26.54c-0.01-3.234-1.109-5.853-3.368-8.151c-2.331-2.293-4.979-3.393-8.184-3.404
	L15.556,2.36C12.35,2.368,9.674,3.474,7.401,5.758c-2.29,2.305-3.389,4.92-3.398,8.154v26.54c0,1.482,0.227,2.807,0.679,4.064
	c0.582,1.507,1.452,2.874,2.728,4.124c1.163,1.188,2.491,2.062,3.903,2.606c0.616,0.23,1.273,0.434,1.938,0.556l0.022,0.004
	c0.431,0.094,0.957,0.146,1.511,0.2c0.293,0.003,0.547,0.025,0.716,0.024c0.526,0,0.954,0.427,0.954,0.954S16.027,53.94,15.5,53.94
	c-0.312-0.002-0.584-0.029-0.762-0.027l-0.092-0.004c-0.566-0.055-1.159-0.108-1.746-0.229c-0.805-0.151-1.566-0.385-2.266-0.647
	c-1.685-0.65-3.245-1.685-4.576-3.043c-1.458-1.429-2.494-3.054-3.167-4.809l-0.006-0.019c-0.528-1.469-0.792-3.031-0.792-4.709
	V13.913c-0.009-3.688,1.344-6.904,3.956-9.5c2.582-2.623,5.846-3.971,9.506-3.961h12.506c3.662-0.009,6.898,1.341,9.533,3.961
	c2.584,2.601,3.937,5.812,3.927,9.5v26.54c0.009,3.688-1.339,6.923-3.927,9.526l-0.027,0.027c-0.407,0.38-0.832,0.779-1.303,1.127
	c-2.133,1.692-4.628,2.607-7.353,2.776l-0.061,0.002h-0.248c-1.049,0.028-1.933,0.027-2.64,0.028
	C25.257,53.938,24.902,53.938,24.875,53.938"/>
<path fill="#1D1D1B" d="M31.553,10.411c-1.652-1.641-3.747-2.507-6.051-2.495l-7.358,0.001c-2.326-0.012-4.449,0.847-6.071,2.484
	c-0.01,0.009-0.018,0.017-0.026,0.025c-1.636,1.656-2.499,3.753-2.485,6.073L9.561,31.187l0.001,6.676
	c-0.013,2.326,0.846,4.455,2.516,6.076c0.853,0.88,1.845,1.519,2.892,1.931c0.482,0.192,0.958,0.32,1.413,0.412
	c0.418,0.1,0.792,0.13,1.128,0.155c0.269,0.042,0.462,0.033,0.633,0.035h7.385c1.929,0,3.723-0.62,5.199-1.789
	c0.273-0.214,0.562-0.466,0.836-0.769c1.646-1.613,2.533-3.726,2.521-6.052V16.5C34.098,14.16,33.194,12.062,31.553,10.411z
	 M20.868,44.021h-2.724c-0.095,0-0.169-0.001-0.214-0.003c-0.02-0.001-0.036-0.001-0.043-0.002h-0.002l-0.137-0.019
	c-0.35-0.026-0.604-0.053-0.804-0.104l-0.058-0.013c-0.357-0.07-0.69-0.161-1.012-0.291c-0.75-0.295-1.439-0.739-2.051-1.373
	l-0.024-0.026c-1.217-1.21-1.773-2.565-1.786-4.327V32.14h8.854L20.868,44.021L20.868,44.021z M29.82,42.191l-0.059,0.061
	c-0.154,0.176-0.343,0.346-0.543,0.502c-1.083,0.846-2.277,1.263-3.716,1.267h-2.726V32.141h8.856v5.722
	C31.62,39.611,31.043,40.974,29.82,42.191z M31.633,30.233h-19.62V16.5c0.014-1.749,0.554-3.073,1.779-4.35
	c0.005-0.004,0.01-0.011,0.016-0.014v-0.001c1.211-1.196,2.576-1.754,4.336-1.766h7.358c1.728,0.012,3.067,0.563,4.318,1.775
	c1.231,1.274,1.798,2.61,1.812,4.356V30.233z"/>
<path fill="#57A132" d="M21.714,2.822V0.15c0-0.451,0.366-0.816,0.818-0.816S23.35-0.3,23.35,0.15v2.671
	c0,0.452-0.366,0.818-0.817,0.818C22.081,3.64,21.714,3.274,21.714,2.822"/>
<path fill="#57A132" d="M20.188,2.822V0.15c0-0.451,0.366-0.816,0.818-0.816S21.824-0.3,21.824,0.15v2.671
	c0,0.452-0.367,0.818-0.818,0.818C20.556,3.64,20.188,3.274,20.188,2.822"/>
<path fill="#57A132" d="M23.826,4.164l-0.655-3.679c-0.079-0.444,0.217-0.868,0.662-0.947c0.445-0.08,0.87,0.218,0.948,0.661
	l0.653,3.68c0.081,0.444-0.216,0.868-0.662,0.947c-0.049,0.008-0.096,0.013-0.144,0.013C24.24,4.838,23.895,4.561,23.826,4.164"/>
<path fill="#57A132" d="M18.783,2.905l-0.627-3.651c-0.076-0.444,0.223-0.867,0.668-0.943c0.445-0.076,0.867,0.223,0.942,0.667
	l0.628,3.651c0.076,0.446-0.223,0.868-0.667,0.944c-0.047,0.008-0.093,0.012-0.138,0.012C19.196,3.585,18.851,3.303,18.783,2.905"/>
<path fill="#57A132" d="M39.29,17.619c-0.452,0-0.817-0.367-0.817-0.818c0-0.452,0.366-0.817,0.817-0.817h2.67
	c0.451,0,0.818,0.366,0.818,0.817c0,0.451-0.367,0.818-0.818,0.818H39.29z"/>
<path fill="#57A132" d="M39.29,16.12c-0.452,0-0.817-0.367-0.817-0.817c0-0.452,0.366-0.818,0.817-0.818h2.67
	c0.452,0,0.818,0.367,0.818,0.818s-0.366,0.817-0.818,0.817H39.29z"/>
<path fill="#57A132" d="M37.313,19.042c-0.08-0.444,0.216-0.869,0.66-0.949l3.652-0.653c0.444-0.081,0.869,0.215,0.949,0.659
	c0.079,0.445-0.216,0.87-0.661,0.949l-3.651,0.654c-0.049,0.009-0.098,0.014-0.146,0.014C37.728,19.716,37.384,19.438,37.313,19.042
	"/>
<path fill="#57A132" d="M38.511,13.994c-0.075-0.444,0.224-0.867,0.668-0.943l3.678-0.626c0.445-0.077,0.869,0.223,0.943,0.668
	c0.076,0.446-0.225,0.867-0.668,0.944l-3.678,0.627c-0.046,0.008-0.093,0.01-0.138,0.01C38.925,14.674,38.578,14.393,38.511,13.994"
	/>
<path fill="#57A132" d="M39.29,40.505c-0.452,0-0.817-0.365-0.817-0.816c0-0.452,0.366-0.817,0.817-0.817h2.67
	c0.451,0,0.818,0.365,0.818,0.817c0,0.451-0.367,0.816-0.818,0.816H39.29z"/>
<path fill="#57A132" d="M39.289,38.98c-0.451,0-0.817-0.366-0.817-0.818c0-0.45,0.366-0.818,0.817-0.818h2.671
	c0.452,0,0.818,0.368,0.818,0.818c0,0.452-0.366,0.818-0.818,0.818H39.289z"/>
<path fill="#57A132" d="M37.313,41.931c-0.079-0.444,0.217-0.868,0.66-0.948l3.652-0.653c0.444-0.08,0.869,0.216,0.949,0.66
	c0.079,0.445-0.216,0.869-0.661,0.949l-3.651,0.655c-0.049,0.009-0.098,0.012-0.146,0.012
	C37.728,42.604,37.384,42.328,37.313,41.931"/>
<path fill="#57A132" d="M38.512,36.89c-0.08-0.444,0.216-0.869,0.662-0.947l3.678-0.655c0.444-0.078,0.868,0.218,0.948,0.662
	s-0.218,0.869-0.663,0.949l-3.678,0.652c-0.049,0.008-0.097,0.013-0.144,0.013C38.927,37.563,38.582,37.284,38.512,36.89"/>
<path fill="#57A132" d="M1.604,17.619c-0.452,0-0.817-0.367-0.817-0.818c0-0.452,0.365-0.817,0.817-0.817h2.671
	c0.452,0,0.818,0.366,0.818,0.817c0,0.451-0.367,0.818-0.818,0.818H1.604z"/>
<path fill="#57A132" d="M1.604,16.12c-0.452,0-0.818-0.367-0.818-0.817c0-0.452,0.366-0.818,0.818-0.818h2.671
	c0.452,0,0.817,0.367,0.817,0.818S4.726,16.12,4.275,16.12H1.604z"/>
<path fill="#57A132" d="M5.303,19.703l-3.651-0.654C1.206,18.97,0.911,18.544,0.99,18.1c0.081-0.444,0.505-0.74,0.95-0.659
	l3.651,0.653c0.445,0.08,0.74,0.504,0.661,0.949c-0.071,0.395-0.417,0.673-0.804,0.673C5.401,19.716,5.352,19.712,5.303,19.703"/>
<path fill="#57A132" d="M4.082,14.663l-3.65-0.626c-0.445-0.077-0.745-0.499-0.667-0.944c0.077-0.445,0.5-0.744,0.944-0.667
	l3.652,0.626c0.445,0.078,0.742,0.499,0.667,0.944c-0.068,0.399-0.414,0.679-0.805,0.679C4.176,14.674,4.13,14.671,4.082,14.663"/>
<path fill="#57A132" d="M1.604,40.505c-0.452,0-0.818-0.365-0.818-0.816c0-0.452,0.366-0.817,0.818-0.817h2.671
	c0.451,0,0.818,0.365,0.818,0.817c0,0.451-0.367,0.816-0.818,0.816H1.604z"/>
<path fill="#57A132" d="M1.604,38.98c-0.452,0-0.817-0.366-0.817-0.818c0-0.45,0.365-0.818,0.817-0.818h2.671
	c0.451,0,0.817,0.368,0.817,0.818c0,0.452-0.366,0.818-0.817,0.818H1.604z"/>
<path fill="#57A132" d="M5.303,42.592l-3.651-0.655c-0.445-0.08-0.74-0.504-0.661-0.949c0.08-0.442,0.505-0.739,0.949-0.661
	l3.651,0.654c0.444,0.08,0.74,0.506,0.661,0.949c-0.071,0.396-0.415,0.673-0.804,0.673C5.401,42.604,5.352,42.601,5.303,42.592"/>
<path fill="#57A132" d="M4.076,37.549l-3.65-0.651c-0.444-0.081-0.74-0.507-0.659-0.95c0.078-0.443,0.504-0.74,0.947-0.661
	l3.652,0.653c0.444,0.081,0.74,0.506,0.66,0.949c-0.07,0.396-0.415,0.675-0.803,0.675C4.173,37.563,4.125,37.559,4.076,37.549"/>
</svg>
