<?xml version="1.0" encoding="utf-8"?>
<!-- Generator: Adobe Illustrator 15.0.2, SVG Export Plug-In . SVG Version: 6.00 Build 0)  -->
<!DOCTYPE svg PUBLIC "-//W3C//DTD SVG 1.1//EN" "http://www.w3.org/Graphics/SVG/1.1/DTD/svg11.dtd">
<svg version="1.1" id="Layer_x5F_1_x5F_1" xmlns="http://www.w3.org/2000/svg" xmlns:xlink="http://www.w3.org/1999/xlink" x="0px"
	 y="0px" width="200px" height="20px" viewBox="0 0 200 20" enable-background="new 0 0 200 20" xml:space="preserve">
<path d="M67.334,12.666V7.334h5.263v5.332H67.334z M64.028,15.997h8.568l3.291-3.331V4.004h-8.785L64.028,7.17V15.997z
	 M47.241,12.163l8.077-8.159H40.002v11.993h14.866l-3.13-3.331h-8.452V7.334h4.952l-4.764,4.829H47.241z M56.123,20h31.578v-3.331
	H59.424L56.123,20z M84.853,7.334l3.287-3.331H76.541v3.842l4.758,4.82h-4.758l-3.283,3.331h12.167v-3.639l-4.956-5.025
	L84.853,7.334L84.853,7.334z M36.703,20h18.278v-3.331H39.837L36.703,20z M58.762,16.669V7.334h4.275l3.31-3.331H55.971L52.76,7.334
	h2.712V20L58.762,16.669z M96.717,15.997H100V4.004l-3.283,3.331V15.997z M96.717,0.005v3.327H100V0.005H96.717z M88.812,20H100
	v-3.331h-7.901L88.812,20z M39.338,4.004h-15.3l11.515,11.667v-4.366l-3.918-3.971h4.417v8.833L32.257,20h3.622l3.459-3.496
	C39.338,16.504,39.338,4.004,39.338,4.004z M91.446,16.669V7.334h4.599l3.304-3.331H88.811l-3.307,3.331h2.634V20L91.446,16.669z
	 M20.41,16.669L17.114,20h14.328l3.294-3.331H20.41z M96.045,0.005H3.947v3.327H92.92L96.045,0.005z M3.295,16.669V3.332L0,0.005V20
	h15.148l-3.299-3.331H3.295z M19.751,7.334h2.457l1.4,1.324l-3.258,3.348v3.991l2.39-2.434l2.509,2.555l4.184,0.049l-4.702-4.635
	l2.984-3.037l-4.501-4.491h-6.751V20l3.289-3.331V7.334L19.751,7.334z M3.947,15.997l3.303-3.331V7.334h5.267v5.252L7.744,7.734
	L7.739,8.16v0.008v3.665L15.799,20V4.004H3.947V15.997z"/>
<path fill="#59A618" d="M167.334,12.666v-5.32h5.263v5.32H167.334z M164.028,15.996h8.568l3.291-3.33V4.003h-8.785l-3.074,3.178
	V15.996z M147.241,12.162l8.077-8.159h-15.316v11.993h14.866l-3.13-3.33h-8.452v-5.32h4.952l-4.764,4.816H147.241z M156.123,20
	h31.578v-3.332h-28.277L156.123,20z M184.853,7.346l3.287-3.342h-11.599v3.854l4.758,4.809h-4.758l-3.283,3.33h12.167v-3.639
	l-4.956-5.012H184.853L184.853,7.346z M136.703,20h18.278v-3.332h-15.145L136.703,20z M158.762,16.668V7.346h4.275l3.31-3.342
	h-10.376l-3.211,3.342h2.712V20L158.762,16.668z M196.717,15.996H200V4.003l-3.283,3.342V15.996z M196.717,0.004v3.339H200V0.004
	H196.717z M188.812,20H200v-3.332h-7.901L188.812,20z M139.338,4.003h-15.3l11.515,11.674v-4.373l-3.918-3.959h4.418v8.82
	L132.258,20h3.621l3.459-3.496V4.003z M191.446,16.668V7.346h4.599l3.304-3.342h-10.538l-3.307,3.342h2.634V20L191.446,16.668z
	 M120.41,16.668L117.114,20h14.327l3.295-3.332H120.41z M196.045,0.004h-92.098v3.339h88.973L196.045,0.004z M103.295,16.668V3.343
	L100,0.004V20h15.148l-3.3-3.332H103.295z M119.751,7.346h2.457l1.399,1.312l-3.258,3.348v3.99l2.391-2.434l2.509,2.568l4.185,0.035
	l-4.702-4.623l2.983-3.049l-4.501-4.491h-6.751V20l3.288-3.332V7.346L119.751,7.346z M103.947,15.996l3.303-3.33v-5.32h5.268v5.24
	l-4.773-4.84l-0.005,0.414v0.008v3.676l8.06,8.156V4.003h-11.852V15.996z"/>
</svg>
